<svg width="241" height="42" viewBox="0 0 241 42" fill="none" xmlns="http://www.w3.org/2000/svg">
<path opacity="0.5" d="M40.0652 2.25671L30.2601 36.9917C30.2102 37.1494 30.0108 37.1967 29.8945 37.0863L23.3301 30.8583L28.2492 13.4514C28.2991 13.2937 28.1495 13.1518 27.9833 13.1991L9.63617 17.8662L3.10498 11.6697C2.98865 11.5593 3.03851 11.3701 3.20469 11.3228L39.7993 2.00444C39.9655 1.97291 40.115 2.11481 40.0652 2.25671Z" fill="#00B37E"/>
<path opacity="0.5" d="M23.3297 30.858L20.8037 39.8452C20.7538 40.0029 20.5544 40.0502 20.4381 39.9398L0.0634003 20.6251C-0.0529313 20.5147 -0.00307518 20.3255 0.163113 20.2782L9.63583 17.8658L23.3297 30.858Z" fill="#00B37E"/>
<path d="M28.2484 13.4511L23.3292 30.858L9.63533 17.8659L27.9825 13.1988C28.1487 13.1515 28.2982 13.2934 28.2484 13.4511Z" fill="#00B37E"/>
<path d="M61.4377 11.3104V29.5H57.6898V11.3104H61.4377ZM68.6835 19.081V22.0043H60.4133V19.081H68.6835ZM69.558 11.3104V14.2462H60.4133V11.3104H69.558ZM75.3047 15.9828V29.5H71.6943V15.9828H75.3047ZM71.4694 12.4598C71.4694 11.9351 71.6526 11.502 72.0191 11.1605C72.3856 10.819 72.8769 10.6483 73.4933 10.6483C74.1012 10.6483 74.5885 10.819 74.9549 11.1605C75.3297 11.502 75.5171 11.9351 75.5171 12.4598C75.5171 12.9845 75.3297 13.4176 74.9549 13.759C74.5885 14.1005 74.1012 14.2712 73.4933 14.2712C72.8769 14.2712 72.3856 14.1005 72.0191 13.759C71.6526 13.4176 71.4694 12.9845 71.4694 12.4598ZM81.801 18.8686V29.5H78.2031V15.9828H81.5761L81.801 18.8686ZM81.2763 22.2666H80.3018C80.3018 21.2672 80.4309 20.3677 80.6891 19.5682C80.9473 18.7603 81.3096 18.0732 81.776 17.5069C82.2424 16.9322 82.7963 16.495 83.4376 16.1951C84.0872 15.887 84.8118 15.7329 85.6113 15.7329C86.2443 15.7329 86.8231 15.8245 87.3478 16.0077C87.8725 16.191 88.3222 16.4825 88.697 16.8822C89.0801 17.282 89.3716 17.8109 89.5715 18.4688C89.7797 19.1268 89.8839 19.9305 89.8839 20.8799V29.5H86.2609V20.8675C86.2609 20.2678 86.1776 19.8014 86.0111 19.4683C85.8445 19.1351 85.5988 18.9019 85.274 18.7687C84.9575 18.6271 84.5661 18.5563 84.0997 18.5563C83.6166 18.5563 83.196 18.6521 82.8379 18.8436C82.4881 19.0352 82.1966 19.3017 81.9634 19.6432C81.7385 19.9763 81.5678 20.3677 81.4512 20.8175C81.3346 21.2672 81.2763 21.7503 81.2763 22.2666ZM99.9156 26.4517V20.4302C99.9156 19.9971 99.8448 19.6265 99.7032 19.3183C99.5616 19.0019 99.3409 18.7562 99.0411 18.5813C98.7496 18.4064 98.3707 18.3189 97.9043 18.3189C97.5045 18.3189 97.1588 18.3897 96.8673 18.5313C96.5759 18.6645 96.351 18.8603 96.1927 19.1185C96.0345 19.3683 95.9554 19.664 95.9554 20.0054H92.3574C92.3574 19.4308 92.4907 18.8853 92.7572 18.3689C93.0237 17.8525 93.411 17.3986 93.919 17.0072C94.4271 16.6074 95.0309 16.2951 95.7305 16.0702C96.4384 15.8453 97.2296 15.7329 98.1041 15.7329C99.1535 15.7329 100.086 15.9078 100.903 16.2576C101.719 16.6074 102.36 17.1321 102.826 17.8317C103.301 18.5313 103.539 19.4058 103.539 20.4552V26.2394C103.539 26.9806 103.584 27.5886 103.676 28.0633C103.768 28.5297 103.901 28.9378 104.076 29.2876V29.5H100.44C100.265 29.1335 100.132 28.6755 100.041 28.1258C99.9572 27.5678 99.9156 27.0098 99.9156 26.4517ZM100.39 21.2672L100.415 23.3036H98.404C97.9292 23.3036 97.517 23.3577 97.1672 23.466C96.8174 23.5742 96.53 23.7283 96.3052 23.9282C96.0803 24.1198 95.9137 24.3446 95.8055 24.6028C95.7055 24.861 95.6555 25.1442 95.6555 25.4523C95.6555 25.7605 95.7263 26.0395 95.8679 26.2893C96.0095 26.5309 96.2136 26.7224 96.4801 26.864C96.7466 26.9973 97.0589 27.0639 97.417 27.0639C97.9584 27.0639 98.429 26.9556 98.8287 26.7391C99.2285 26.5225 99.5367 26.256 99.7532 25.9395C99.9781 25.6231 100.095 25.3232 100.103 25.0401L101.052 26.5642C100.919 26.9057 100.736 27.2596 100.503 27.6261C100.278 27.9925 99.9906 28.3382 99.6408 28.663C99.291 28.9795 98.8704 29.2418 98.379 29.45C97.8876 29.6499 97.3046 29.7499 96.63 29.7499C95.7721 29.7499 94.9934 29.5791 94.2938 29.2377C93.6026 28.8879 93.0529 28.409 92.6448 27.801C92.245 27.1847 92.0451 26.4851 92.0451 25.7022C92.0451 24.9943 92.1784 24.3654 92.4449 23.8158C92.7114 23.2661 93.1028 22.8038 93.6192 22.4291C94.1439 22.0459 94.7977 21.7586 95.5806 21.5671C96.3635 21.3672 97.2713 21.2672 98.304 21.2672H100.39ZM109.835 18.8686V29.5H106.237V15.9828H109.61L109.835 18.8686ZM109.31 22.2666H108.336C108.336 21.2672 108.465 20.3677 108.723 19.5682C108.981 18.7603 109.344 18.0732 109.81 17.5069C110.276 16.9322 110.83 16.495 111.471 16.1951C112.121 15.887 112.846 15.7329 113.645 15.7329C114.278 15.7329 114.857 15.8245 115.382 16.0077C115.906 16.191 116.356 16.4825 116.731 16.8822C117.114 17.282 117.406 17.8109 117.605 18.4688C117.814 19.1268 117.918 19.9305 117.918 20.8799V29.5H114.295V20.8675C114.295 20.2678 114.212 19.8014 114.045 19.4683C113.878 19.1351 113.633 18.9019 113.308 18.7687C112.991 18.6271 112.6 18.5563 112.134 18.5563C111.651 18.5563 111.23 18.6521 110.872 18.8436C110.522 19.0352 110.231 19.3017 109.997 19.6432C109.772 19.9763 109.602 20.3677 109.485 20.8175C109.369 21.2672 109.31 21.7503 109.31 22.2666ZM126.238 26.939C126.679 26.939 127.071 26.8557 127.412 26.6891C127.754 26.5142 128.02 26.2727 128.212 25.9645C128.412 25.648 128.516 25.2774 128.524 24.8527H131.91C131.901 25.8021 131.647 26.6475 131.148 27.3887C130.648 28.1216 129.978 28.7005 129.136 29.1252C128.295 29.5416 127.354 29.7499 126.313 29.7499C125.264 29.7499 124.347 29.575 123.565 29.2252C122.79 28.8754 122.145 28.3923 121.628 27.776C121.112 27.1513 120.724 26.4268 120.466 25.6022C120.208 24.7694 120.079 23.8782 120.079 22.9288V22.5665C120.079 21.6087 120.208 20.7175 120.466 19.893C120.724 19.0602 121.112 18.3356 121.628 17.7193C122.145 17.0946 122.79 16.6074 123.565 16.2576C124.339 15.9078 125.247 15.7329 126.288 15.7329C127.396 15.7329 128.366 15.9453 129.199 16.37C130.04 16.7948 130.698 17.4028 131.173 18.194C131.656 18.9769 131.901 19.9055 131.91 20.9799H128.524C128.516 20.5301 128.42 20.122 128.237 19.7556C128.062 19.3891 127.804 19.0976 127.462 18.8811C127.129 18.6562 126.717 18.5438 126.226 18.5438C125.701 18.5438 125.272 18.6562 124.939 18.8811C124.606 19.0976 124.347 19.3975 124.164 19.7806C123.981 20.1554 123.852 20.5843 123.777 21.0673C123.71 21.5421 123.677 22.0418 123.677 22.5665V22.9288C123.677 23.4535 123.71 23.9573 123.777 24.4404C123.844 24.9235 123.968 25.3524 124.152 25.7272C124.343 26.1019 124.606 26.3976 124.939 26.6142C125.272 26.8307 125.705 26.939 126.238 26.939ZM140.217 29.7499C139.168 29.7499 138.227 29.5833 137.394 29.2501C136.561 28.9087 135.853 28.4381 135.27 27.8385C134.696 27.2388 134.254 26.5434 133.946 25.7521C133.638 24.9526 133.484 24.1031 133.484 23.2036V22.7039C133.484 21.6795 133.63 20.7425 133.921 19.893C134.213 19.0435 134.629 18.3064 135.17 17.6818C135.72 17.0571 136.386 16.5782 137.169 16.2451C137.952 15.9036 138.835 15.7329 139.818 15.7329C140.775 15.7329 141.625 15.8911 142.366 16.2076C143.107 16.5241 143.728 16.9739 144.228 17.5569C144.736 18.1398 145.119 18.8394 145.377 19.6556C145.635 20.4635 145.764 21.363 145.764 22.3541V23.8532H135.02V21.4546H142.229V21.1798C142.229 20.6801 142.137 20.2345 141.954 19.843C141.779 19.4433 141.513 19.1268 141.154 18.8936C140.796 18.6604 140.338 18.5438 139.78 18.5438C139.306 18.5438 138.897 18.6479 138.556 18.8561C138.214 19.0643 137.935 19.3558 137.719 19.7306C137.511 20.1054 137.352 20.5468 137.244 21.0548C137.144 21.5546 137.094 22.1042 137.094 22.7039V23.2036C137.094 23.745 137.169 24.2447 137.319 24.7028C137.477 25.1608 137.698 25.5564 137.981 25.8896C138.273 26.2227 138.623 26.4809 139.031 26.6641C139.447 26.8474 139.918 26.939 140.442 26.939C141.092 26.939 141.696 26.814 142.254 26.5642C142.82 26.306 143.307 25.9187 143.715 25.4024L145.464 27.3013C145.181 27.7094 144.794 28.1008 144.303 28.4756C143.82 28.8504 143.237 29.1585 142.554 29.4001C141.871 29.6333 141.092 29.7499 140.217 29.7499ZM161.868 11.3104V29.5H158.132V11.3104H161.868ZM167.464 11.3104V14.2462H152.623V11.3104H167.464ZM172.099 18.9311V29.5H168.501V15.9828H171.887L172.099 18.9311ZM176.172 15.8953L176.109 19.2309C175.935 19.2059 175.722 19.1851 175.472 19.1684C175.231 19.1434 175.01 19.1309 174.81 19.1309C174.302 19.1309 173.861 19.1976 173.486 19.3308C173.119 19.4558 172.811 19.6432 172.561 19.893C172.32 20.1429 172.137 20.4469 172.012 20.805C171.895 21.1631 171.829 21.5712 171.812 22.0293L171.087 21.8044C171.087 20.9299 171.175 20.1262 171.35 19.3933C171.525 18.6521 171.779 18.0066 172.112 17.4569C172.453 16.9072 172.87 16.4825 173.361 16.1826C173.852 15.8828 174.415 15.7329 175.048 15.7329C175.247 15.7329 175.451 15.7496 175.66 15.7829C175.868 15.8079 176.039 15.8453 176.172 15.8953ZM184.742 26.4517V20.4302C184.742 19.9971 184.671 19.6265 184.53 19.3183C184.388 19.0019 184.167 18.7562 183.867 18.5813C183.576 18.4064 183.197 18.3189 182.731 18.3189C182.331 18.3189 181.985 18.3897 181.694 18.5313C181.402 18.6645 181.177 18.8603 181.019 19.1185C180.861 19.3683 180.782 19.664 180.782 20.0054H177.184C177.184 19.4308 177.317 18.8853 177.584 18.3689C177.85 17.8525 178.237 17.3986 178.745 17.0072C179.253 16.6074 179.857 16.2951 180.557 16.0702C181.265 15.8453 182.056 15.7329 182.93 15.7329C183.98 15.7329 184.913 15.9078 185.729 16.2576C186.545 16.6074 187.186 17.1321 187.653 17.8317C188.128 18.5313 188.365 19.4058 188.365 20.4552V26.2394C188.365 26.9806 188.411 27.5886 188.502 28.0633C188.594 28.5297 188.727 28.9378 188.902 29.2876V29.5H185.267C185.092 29.1335 184.958 28.6755 184.867 28.1258C184.784 27.5678 184.742 27.0098 184.742 26.4517ZM185.217 21.2672L185.242 23.3036H183.23C182.756 23.3036 182.343 23.3577 181.994 23.466C181.644 23.5742 181.356 23.7283 181.132 23.9282C180.907 24.1198 180.74 24.3446 180.632 24.6028C180.532 24.861 180.482 25.1442 180.482 25.4523C180.482 25.7605 180.553 26.0395 180.694 26.2893C180.836 26.5309 181.04 26.7224 181.306 26.864C181.573 26.9973 181.885 27.0639 182.243 27.0639C182.785 27.0639 183.255 26.9556 183.655 26.7391C184.055 26.5225 184.363 26.256 184.58 25.9395C184.804 25.6231 184.921 25.3232 184.929 25.0401L185.879 26.5642C185.746 26.9057 185.562 27.2596 185.329 27.6261C185.104 27.9925 184.817 28.3382 184.467 28.663C184.117 28.9795 183.697 29.2418 183.205 29.45C182.714 29.6499 182.131 29.7499 181.456 29.7499C180.598 29.7499 179.82 29.5791 179.12 29.2377C178.429 28.8879 177.879 28.409 177.471 27.801C177.071 27.1847 176.871 26.4851 176.871 25.7022C176.871 24.9943 177.005 24.3654 177.271 23.8158C177.538 23.2661 177.929 22.8038 178.446 22.4291C178.97 22.0459 179.624 21.7586 180.407 21.5671C181.19 21.3672 182.098 21.2672 183.13 21.2672H185.217ZM196.723 26.939C197.164 26.939 197.555 26.8557 197.897 26.6891C198.238 26.5142 198.505 26.2727 198.696 25.9645C198.896 25.648 199 25.2774 199.009 24.8527H202.394C202.386 25.8021 202.132 26.6475 201.632 27.3887C201.133 28.1216 200.462 28.7005 199.621 29.1252C198.78 29.5416 197.839 29.7499 196.798 29.7499C195.748 29.7499 194.832 29.575 194.049 29.2252C193.275 28.8754 192.629 28.3923 192.113 27.776C191.596 27.1513 191.209 26.4268 190.951 25.6022C190.693 24.7694 190.564 23.8782 190.564 22.9288V22.5665C190.564 21.6087 190.693 20.7175 190.951 19.893C191.209 19.0602 191.596 18.3356 192.113 17.7193C192.629 17.0946 193.275 16.6074 194.049 16.2576C194.824 15.9078 195.731 15.7329 196.773 15.7329C197.88 15.7329 198.851 15.9453 199.683 16.37C200.525 16.7948 201.183 17.4028 201.657 18.194C202.14 18.9769 202.386 19.9055 202.394 20.9799H199.009C199 20.5301 198.905 20.122 198.721 19.7556C198.547 19.3891 198.288 19.0976 197.947 18.8811C197.614 18.6562 197.201 18.5438 196.71 18.5438C196.185 18.5438 195.756 18.6562 195.423 18.8811C195.09 19.0976 194.832 19.3975 194.649 19.7806C194.466 20.1554 194.336 20.5843 194.261 21.0673C194.195 21.5421 194.162 22.0418 194.162 22.5665V22.9288C194.162 23.4535 194.195 23.9573 194.261 24.4404C194.328 24.9235 194.453 25.3524 194.636 25.7272C194.828 26.1019 195.09 26.3976 195.423 26.6142C195.756 26.8307 196.19 26.939 196.723 26.939ZM208.079 10.2985V29.5H204.481V10.2985H208.079ZM216.599 15.9828L210.727 22.6789L207.579 25.8646L206.267 23.2661L208.766 20.0929L212.276 15.9828H216.599ZM212.863 29.5L208.866 23.2536L211.352 21.0798L217.011 29.5H212.863ZM224.119 29.7499C223.07 29.7499 222.129 29.5833 221.296 29.2501C220.463 28.9087 219.755 28.4381 219.172 27.8385C218.598 27.2388 218.156 26.5434 217.848 25.7521C217.54 24.9526 217.386 24.1031 217.386 23.2036V22.7039C217.386 21.6795 217.531 20.7425 217.823 19.893C218.114 19.0435 218.531 18.3064 219.072 17.6818C219.622 17.0571 220.288 16.5782 221.071 16.2451C221.854 15.9036 222.737 15.7329 223.72 15.7329C224.677 15.7329 225.527 15.8911 226.268 16.2076C227.009 16.5241 227.63 16.9739 228.13 17.5569C228.638 18.1398 229.021 18.8394 229.279 19.6556C229.537 20.4635 229.666 21.363 229.666 22.3541V23.8532H218.922V21.4546H226.131V21.1798C226.131 20.6801 226.039 20.2345 225.856 19.843C225.681 19.4433 225.414 19.1268 225.056 18.8936C224.698 18.6604 224.24 18.5438 223.682 18.5438C223.207 18.5438 222.799 18.6479 222.458 18.8561C222.116 19.0643 221.837 19.3558 221.621 19.7306C221.413 20.1054 221.254 20.5468 221.146 21.0548C221.046 21.5546 220.996 22.1042 220.996 22.7039V23.2036C220.996 23.745 221.071 24.2447 221.221 24.7028C221.379 25.1608 221.6 25.5564 221.883 25.8896C222.175 26.2227 222.524 26.4809 222.933 26.6641C223.349 26.8474 223.82 26.939 224.344 26.939C224.994 26.939 225.598 26.814 226.156 26.5642C226.722 26.306 227.209 25.9187 227.617 25.4024L229.366 27.3013C229.083 27.7094 228.696 28.1008 228.205 28.4756C227.721 28.8504 227.138 29.1585 226.456 29.4001C225.773 29.6333 224.994 29.7499 224.119 29.7499ZM235.313 18.9311V29.5H231.715V15.9828H235.101L235.313 18.9311ZM239.386 15.8953L239.323 19.2309C239.148 19.2059 238.936 19.1851 238.686 19.1684C238.444 19.1434 238.224 19.1309 238.024 19.1309C237.516 19.1309 237.074 19.1976 236.7 19.3308C236.333 19.4558 236.025 19.6432 235.775 19.893C235.534 20.1429 235.35 20.4469 235.225 20.805C235.109 21.1631 235.042 21.5712 235.026 22.0293L234.301 21.8044C234.301 20.9299 234.388 20.1262 234.563 19.3933C234.738 18.6521 234.992 18.0066 235.325 17.4569C235.667 16.9072 236.083 16.4825 236.575 16.1826C237.066 15.8828 237.628 15.7329 238.261 15.7329C238.461 15.7329 238.665 15.7496 238.873 15.7829C239.082 15.8079 239.252 15.8453 239.386 15.8953Z" fill="#E1E1E6"/>
</svg>
